<mxfile host="app.diagrams.net" modified="2022-11-22T00:09:37.937Z" agent="5.0 (Windows NT 10.0; Win64; x64) AppleWebKit/537.36 (KHTML, like Gecko) Chrome/106.0.0.0 Safari/537.36 OPR/92.0.0.0" etag="CeIUFNNaL3R9UmgrVGyV" version="20.5.3" type="github">
  <diagram id="oieIykkjt50GyDJiN5uh" name="Page-1">
    <mxGraphModel dx="1324" dy="795" grid="1" gridSize="10" guides="1" tooltips="1" connect="1" arrows="1" fold="1" page="1" pageScale="1" pageWidth="1920" pageHeight="1200" math="0" shadow="0">
      <root>
        <mxCell id="0" />
        <mxCell id="1" parent="0" />
        <mxCell id="cj4QKr7KFUR1_Z23FWTv-1" value="Revista" style="swimlane;fontStyle=1;align=center;verticalAlign=top;childLayout=stackLayout;horizontal=1;startSize=26;horizontalStack=0;resizeParent=1;resizeParentMax=0;resizeLast=0;collapsible=1;marginBottom=0;" vertex="1" parent="1">
          <mxGeometry x="610" y="50" width="160" height="98" as="geometry" />
        </mxCell>
        <mxCell id="cj4QKr7KFUR1_Z23FWTv-2" value="Título&#xa;INSS&#xa;Periodicidade" style="text;strokeColor=none;fillColor=none;align=left;verticalAlign=top;spacingLeft=4;spacingRight=4;overflow=hidden;rotatable=0;points=[[0,0.5],[1,0.5]];portConstraint=eastwest;" vertex="1" parent="cj4QKr7KFUR1_Z23FWTv-1">
          <mxGeometry y="26" width="160" height="64" as="geometry" />
        </mxCell>
        <mxCell id="cj4QKr7KFUR1_Z23FWTv-3" value="" style="line;strokeWidth=1;fillColor=none;align=left;verticalAlign=middle;spacingTop=-1;spacingLeft=3;spacingRight=3;rotatable=0;labelPosition=right;points=[];portConstraint=eastwest;strokeColor=inherit;" vertex="1" parent="cj4QKr7KFUR1_Z23FWTv-1">
          <mxGeometry y="90" width="160" height="8" as="geometry" />
        </mxCell>
        <mxCell id="cj4QKr7KFUR1_Z23FWTv-5" value="Artigo" style="swimlane;fontStyle=1;align=center;verticalAlign=top;childLayout=stackLayout;horizontal=1;startSize=26;horizontalStack=0;resizeParent=1;resizeParentMax=0;resizeLast=0;collapsible=1;marginBottom=0;" vertex="1" parent="1">
          <mxGeometry x="610" y="500" width="160" height="98" as="geometry" />
        </mxCell>
        <mxCell id="cj4QKr7KFUR1_Z23FWTv-6" value="Título&#xa;Nome do autor&#xa;" style="text;strokeColor=none;fillColor=none;align=left;verticalAlign=top;spacingLeft=4;spacingRight=4;overflow=hidden;rotatable=0;points=[[0,0.5],[1,0.5]];portConstraint=eastwest;" vertex="1" parent="cj4QKr7KFUR1_Z23FWTv-5">
          <mxGeometry y="26" width="160" height="64" as="geometry" />
        </mxCell>
        <mxCell id="cj4QKr7KFUR1_Z23FWTv-7" value="" style="line;strokeWidth=1;fillColor=none;align=left;verticalAlign=middle;spacingTop=-1;spacingLeft=3;spacingRight=3;rotatable=0;labelPosition=right;points=[];portConstraint=eastwest;strokeColor=inherit;" vertex="1" parent="cj4QKr7KFUR1_Z23FWTv-5">
          <mxGeometry y="90" width="160" height="8" as="geometry" />
        </mxCell>
        <mxCell id="cj4QKr7KFUR1_Z23FWTv-9" value="Edição" style="swimlane;fontStyle=1;align=center;verticalAlign=top;childLayout=stackLayout;horizontal=1;startSize=26;horizontalStack=0;resizeParent=1;resizeParentMax=0;resizeLast=0;collapsible=1;marginBottom=0;" vertex="1" parent="1">
          <mxGeometry x="610" y="280" width="160" height="98" as="geometry" />
        </mxCell>
        <mxCell id="cj4QKr7KFUR1_Z23FWTv-10" value="Nº edição&#xa;Volume&#xa;Data de edição" style="text;strokeColor=none;fillColor=none;align=left;verticalAlign=top;spacingLeft=4;spacingRight=4;overflow=hidden;rotatable=0;points=[[0,0.5],[1,0.5]];portConstraint=eastwest;" vertex="1" parent="cj4QKr7KFUR1_Z23FWTv-9">
          <mxGeometry y="26" width="160" height="64" as="geometry" />
        </mxCell>
        <mxCell id="cj4QKr7KFUR1_Z23FWTv-11" value="" style="line;strokeWidth=1;fillColor=none;align=left;verticalAlign=middle;spacingTop=-1;spacingLeft=3;spacingRight=3;rotatable=0;labelPosition=right;points=[];portConstraint=eastwest;strokeColor=inherit;" vertex="1" parent="cj4QKr7KFUR1_Z23FWTv-9">
          <mxGeometry y="90" width="160" height="8" as="geometry" />
        </mxCell>
        <mxCell id="cj4QKr7KFUR1_Z23FWTv-17" value="" style="endArrow=classic;html=1;rounded=0;exitX=0.5;exitY=0;exitDx=0;exitDy=0;entryX=0.5;entryY=1;entryDx=0;entryDy=0;startArrow=none;" edge="1" parent="1" source="cj4QKr7KFUR1_Z23FWTv-41" target="cj4QKr7KFUR1_Z23FWTv-9">
          <mxGeometry width="50" height="50" relative="1" as="geometry">
            <mxPoint x="680" y="430" as="sourcePoint" />
            <mxPoint x="730" y="380" as="targetPoint" />
          </mxGeometry>
        </mxCell>
        <mxCell id="cj4QKr7KFUR1_Z23FWTv-18" value="" style="endArrow=classic;html=1;rounded=0;exitX=0.5;exitY=0;exitDx=0;exitDy=0;entryX=0.5;entryY=1;entryDx=0;entryDy=0;" edge="1" parent="1" source="cj4QKr7KFUR1_Z23FWTv-9" target="cj4QKr7KFUR1_Z23FWTv-1">
          <mxGeometry width="50" height="50" relative="1" as="geometry">
            <mxPoint x="680" y="430" as="sourcePoint" />
            <mxPoint x="730" y="380" as="targetPoint" />
          </mxGeometry>
        </mxCell>
        <mxCell id="cj4QKr7KFUR1_Z23FWTv-24" value="1" style="text;html=1;strokeColor=none;fillColor=none;align=center;verticalAlign=middle;whiteSpace=wrap;rounded=0;" vertex="1" parent="1">
          <mxGeometry x="670" y="148" width="60" height="20" as="geometry" />
        </mxCell>
        <mxCell id="cj4QKr7KFUR1_Z23FWTv-25" value="1" style="text;html=1;strokeColor=none;fillColor=none;align=center;verticalAlign=middle;whiteSpace=wrap;rounded=0;" vertex="1" parent="1">
          <mxGeometry x="670" y="260" width="60" height="20" as="geometry" />
        </mxCell>
        <mxCell id="cj4QKr7KFUR1_Z23FWTv-26" value="1" style="text;html=1;strokeColor=none;fillColor=none;align=center;verticalAlign=middle;whiteSpace=wrap;rounded=0;" vertex="1" parent="1">
          <mxGeometry x="680" y="378" width="60" height="20" as="geometry" />
        </mxCell>
        <mxCell id="cj4QKr7KFUR1_Z23FWTv-28" value="+1..15" style="text;html=1;strokeColor=none;fillColor=none;align=center;verticalAlign=middle;whiteSpace=wrap;rounded=0;" vertex="1" parent="1">
          <mxGeometry x="680" y="480" width="60" height="20" as="geometry" />
        </mxCell>
        <mxCell id="cj4QKr7KFUR1_Z23FWTv-30" value="1..20" style="text;html=1;strokeColor=none;fillColor=none;align=center;verticalAlign=middle;whiteSpace=wrap;rounded=0;" vertex="1" parent="1">
          <mxGeometry x="1090" y="336" width="60" height="20" as="geometry" />
        </mxCell>
        <mxCell id="cj4QKr7KFUR1_Z23FWTv-31" value="" style="endArrow=none;html=1;rounded=0;entryX=0;entryY=0.5;entryDx=0;entryDy=0;exitX=0;exitY=0.5;exitDx=0;exitDy=0;" edge="1" parent="1" source="cj4QKr7KFUR1_Z23FWTv-32">
          <mxGeometry width="50" height="50" relative="1" as="geometry">
            <mxPoint x="800" y="338" as="sourcePoint" />
            <mxPoint x="880" y="338" as="targetPoint" />
          </mxGeometry>
        </mxCell>
        <mxCell id="cj4QKr7KFUR1_Z23FWTv-32" value="" style="triangle;whiteSpace=wrap;html=1;rotation=-181;" vertex="1" parent="1">
          <mxGeometry x="770" y="324" width="20" height="32" as="geometry" />
        </mxCell>
        <mxCell id="cj4QKr7KFUR1_Z23FWTv-33" value="Relatório técnico" style="swimlane;fontStyle=1;align=center;verticalAlign=top;childLayout=stackLayout;horizontal=1;startSize=26;horizontalStack=0;resizeParent=1;resizeParentMax=0;resizeLast=0;collapsible=1;marginBottom=0;" vertex="1" parent="1">
          <mxGeometry x="1140" y="280" width="160" height="98" as="geometry" />
        </mxCell>
        <mxCell id="cj4QKr7KFUR1_Z23FWTv-34" value="Nome&#xa;ID" style="text;strokeColor=none;fillColor=none;align=left;verticalAlign=top;spacingLeft=4;spacingRight=4;overflow=hidden;rotatable=0;points=[[0,0.5],[1,0.5]];portConstraint=eastwest;" vertex="1" parent="cj4QKr7KFUR1_Z23FWTv-33">
          <mxGeometry y="26" width="160" height="64" as="geometry" />
        </mxCell>
        <mxCell id="cj4QKr7KFUR1_Z23FWTv-35" value="" style="line;strokeWidth=1;fillColor=none;align=left;verticalAlign=middle;spacingTop=-1;spacingLeft=3;spacingRight=3;rotatable=0;labelPosition=right;points=[];portConstraint=eastwest;strokeColor=inherit;" vertex="1" parent="cj4QKr7KFUR1_Z23FWTv-33">
          <mxGeometry y="90" width="160" height="8" as="geometry" />
        </mxCell>
        <mxCell id="cj4QKr7KFUR1_Z23FWTv-40" value="" style="endArrow=none;html=1;rounded=0;exitX=1;exitY=0.5;exitDx=0;exitDy=0;entryX=0;entryY=0.5;entryDx=0;entryDy=0;" edge="1" parent="1" target="cj4QKr7KFUR1_Z23FWTv-34">
          <mxGeometry width="50" height="50" relative="1" as="geometry">
            <mxPoint x="1040" y="338" as="sourcePoint" />
            <mxPoint x="940" y="280" as="targetPoint" />
          </mxGeometry>
        </mxCell>
        <mxCell id="cj4QKr7KFUR1_Z23FWTv-41" value="" style="rhombus;whiteSpace=wrap;html=1;strokeColor=#000000;fillColor=#000000;" vertex="1" parent="1">
          <mxGeometry x="675" y="378" width="30" height="30" as="geometry" />
        </mxCell>
        <mxCell id="cj4QKr7KFUR1_Z23FWTv-44" value="" style="endArrow=none;html=1;rounded=0;exitX=0.5;exitY=0;exitDx=0;exitDy=0;entryX=0.5;entryY=1;entryDx=0;entryDy=0;" edge="1" parent="1" source="cj4QKr7KFUR1_Z23FWTv-5" target="cj4QKr7KFUR1_Z23FWTv-41">
          <mxGeometry width="50" height="50" relative="1" as="geometry">
            <mxPoint x="690" y="500" as="sourcePoint" />
            <mxPoint x="690" y="378" as="targetPoint" />
          </mxGeometry>
        </mxCell>
        <mxCell id="cj4QKr7KFUR1_Z23FWTv-46" value="Edição Especial" style="swimlane;fontStyle=1;align=center;verticalAlign=top;childLayout=stackLayout;horizontal=1;startSize=26;horizontalStack=0;resizeParent=1;resizeParentMax=0;resizeLast=0;collapsible=1;marginBottom=0;" vertex="1" parent="1">
          <mxGeometry x="880" y="280" width="160" height="98" as="geometry" />
        </mxCell>
        <mxCell id="cj4QKr7KFUR1_Z23FWTv-47" value="ID" style="text;strokeColor=none;fillColor=none;align=left;verticalAlign=top;spacingLeft=4;spacingRight=4;overflow=hidden;rotatable=0;points=[[0,0.5],[1,0.5]];portConstraint=eastwest;" vertex="1" parent="cj4QKr7KFUR1_Z23FWTv-46">
          <mxGeometry y="26" width="160" height="64" as="geometry" />
        </mxCell>
        <mxCell id="cj4QKr7KFUR1_Z23FWTv-48" value="" style="line;strokeWidth=1;fillColor=none;align=left;verticalAlign=middle;spacingTop=-1;spacingLeft=3;spacingRight=3;rotatable=0;labelPosition=right;points=[];portConstraint=eastwest;strokeColor=inherit;" vertex="1" parent="cj4QKr7KFUR1_Z23FWTv-46">
          <mxGeometry y="90" width="160" height="8" as="geometry" />
        </mxCell>
      </root>
    </mxGraphModel>
  </diagram>
</mxfile>
